<svg width="123" height="40" viewBox="0 0 123 40" fill="none" xmlns="http://www.w3.org/2000/svg">
<path d="M17.3507 5.26522C18.4623 3.07683 21.5883 3.07683 22.7 5.26522L26.3214 12.3942C26.61 12.9622 27.0719 13.4236 27.6401 13.7115L34.7694 17.3239C36.9614 18.4347 36.9614 21.5654 34.7694 22.6761L27.6401 26.2885C27.0718 26.5764 26.61 27.0378 26.3214 27.6058L22.7 34.7348C21.5883 36.9232 18.4623 36.9232 17.3507 34.7348L13.7292 27.6058C13.4407 27.0378 12.9788 26.5764 12.4105 26.2885L5.2813 22.6761C3.08927 21.5653 3.08927 18.4346 5.28131 17.3239L12.4105 13.7115C12.9788 13.4236 13.4407 12.9622 13.7292 12.3942L17.3507 5.26522Z" fill="#080808"/>
<path d="M54.6223 17.093C54.5583 16.4484 54.2836 15.9477 53.7982 15.5908C53.3129 15.2339 52.6542 15.0555 51.8222 15.0555C51.2569 15.0555 50.7795 15.1354 50.3902 15.2952C50.0008 15.4497 49.7022 15.6654 49.4942 15.9424C49.2915 16.2194 49.1901 16.5336 49.1901 16.8852C49.1795 17.1782 49.2408 17.4339 49.3741 17.6523C49.5128 17.8707 49.7022 18.0597 49.9422 18.2195C50.1822 18.374 50.4595 18.5099 50.7742 18.627C51.0889 18.7389 51.4249 18.8348 51.7822 18.9147L53.2542 19.2662C53.9689 19.426 54.6249 19.6391 55.2223 19.9055C55.8196 20.1718 56.337 20.4994 56.7743 20.8882C57.2117 21.2771 57.5503 21.7352 57.7903 22.2625C58.0357 22.7899 58.161 23.3944 58.1663 24.0763C58.161 25.0777 57.905 25.9459 57.3983 26.681C56.897 27.4108 56.1716 27.9781 55.2223 28.3829C54.2783 28.7824 53.1396 28.9822 51.8062 28.9822C50.4835 28.9822 49.3315 28.7797 48.3501 28.3749C47.3741 27.9701 46.6114 27.3708 46.0621 26.5771C45.5181 25.7781 45.2327 24.79 45.2061 23.6128H48.5581C48.5955 24.1615 48.7528 24.6196 49.0301 24.9871C49.3128 25.3493 49.6888 25.6237 50.1582 25.8101C50.6328 25.9912 51.1689 26.0818 51.7662 26.0818C52.3529 26.0818 52.8622 25.9965 53.2942 25.8261C53.7316 25.6556 54.0703 25.4186 54.3103 25.115C54.5503 24.8113 54.6703 24.4624 54.6703 24.0683C54.6703 23.7007 54.5609 23.3918 54.3423 23.1414C54.1289 22.8911 53.8142 22.678 53.3982 22.5022C52.9876 22.3264 52.4836 22.1666 51.8862 22.0228L50.1022 21.5754C48.7208 21.2398 47.6301 20.7151 46.8301 20.0013C46.0301 19.2876 45.6327 18.3261 45.6381 17.1169C45.6327 16.1262 45.8967 15.2606 46.4301 14.5202C46.9688 13.7797 47.7074 13.2018 48.6461 12.7863C49.5848 12.3708 50.6515 12.1631 51.8462 12.1631C53.0622 12.1631 54.1236 12.3708 55.0303 12.7863C55.9423 13.2018 56.6516 13.7797 57.1583 14.5202C57.665 15.2606 57.9263 16.1182 57.9423 17.093H54.6223Z" fill="#080808"/>
<path d="M65.9845 28.9901C64.7418 28.9901 63.6671 28.7265 62.7604 28.1991C61.8591 27.6665 61.1631 26.926 60.6724 25.9779C60.1817 25.0244 59.9364 23.9191 59.9364 22.662C59.9364 21.3943 60.1817 20.2863 60.6724 19.3382C61.1631 18.3847 61.8591 17.6443 62.7604 17.1169C63.6671 16.5843 64.7418 16.3179 65.9845 16.3179C67.2272 16.3179 68.2992 16.5843 69.2006 17.1169C70.1073 17.6443 70.806 18.3847 71.2966 19.3382C71.7873 20.2863 72.0327 21.3943 72.0327 22.662C72.0327 23.9191 71.7873 25.0244 71.2966 25.9779C70.806 26.926 70.1073 27.6665 69.2006 28.1991C68.2992 28.7265 67.2272 28.9901 65.9845 28.9901ZM66.0005 26.3534C66.5659 26.3534 67.0379 26.1936 67.4165 25.874C67.7952 25.5491 68.0806 25.107 68.2726 24.5477C68.4699 23.9884 68.5686 23.3518 68.5686 22.6381C68.5686 21.9243 68.4699 21.2877 68.2726 20.7284C68.0806 20.1691 67.7952 19.727 67.4165 19.4021C67.0379 19.0771 66.5659 18.9147 66.0005 18.9147C65.4298 18.9147 64.9498 19.0771 64.5605 19.4021C64.1765 19.727 63.8858 20.1691 63.6885 20.7284C63.4965 21.2877 63.4005 21.9243 63.4005 22.6381C63.4005 23.3518 63.4965 23.9884 63.6885 24.5477C63.8858 25.107 64.1765 25.5491 64.5605 25.874C64.9498 26.1936 65.4298 26.3534 66.0005 26.3534Z" fill="#080808"/>
<path d="M79.8008 28.9901C78.5581 28.9901 77.4834 28.7265 76.5768 28.1991C75.6754 27.6665 74.9794 26.926 74.4887 25.9779C73.998 25.0244 73.7527 23.9191 73.7527 22.662C73.7527 21.3943 73.998 20.2863 74.4887 19.3382C74.9794 18.3847 75.6754 17.6443 76.5768 17.1169C77.4834 16.5843 78.5581 16.3179 79.8008 16.3179C81.0435 16.3179 82.1155 16.5843 83.0169 17.1169C83.9236 17.6443 84.6223 18.3847 85.1129 19.3382C85.6036 20.2863 85.849 21.3943 85.849 22.662C85.849 23.9191 85.6036 25.0244 85.1129 25.9779C84.6223 26.926 83.9236 27.6665 83.0169 28.1991C82.1155 28.7265 81.0435 28.9901 79.8008 28.9901ZM79.8168 26.3534C80.3822 26.3534 80.8542 26.1936 81.2329 25.874C81.6115 25.5491 81.8969 25.107 82.0889 24.5477C82.2862 23.9884 82.3849 23.3518 82.3849 22.6381C82.3849 21.9243 82.2862 21.2877 82.0889 20.7284C81.8969 20.1691 81.6115 19.727 81.2329 19.4021C80.8542 19.0771 80.3822 18.9147 79.8168 18.9147C79.2461 18.9147 78.7661 19.0771 78.3768 19.4021C77.9928 19.727 77.7021 20.1691 77.5048 20.7284C77.3128 21.2877 77.2168 21.9243 77.2168 22.6381C77.2168 23.3518 77.3128 23.9884 77.5048 24.5477C77.7021 25.107 77.9928 25.5491 78.3768 25.874C78.7661 26.1936 79.2461 26.3534 79.8168 26.3534Z" fill="#080808"/>
<path d="M91.4731 21.6553V28.7504H88.065V16.4777H91.3131V18.643H91.4571C91.7291 17.9292 92.1851 17.3646 92.8251 16.9491C93.4651 16.5283 94.2411 16.3179 95.1532 16.3179C96.0065 16.3179 96.7505 16.5044 97.3852 16.8772C98.0199 17.2501 98.5132 17.7828 98.8652 18.4752C99.2173 19.1624 99.3933 19.9827 99.3933 20.9362V28.7504H95.9852V21.5434C95.9905 20.7923 95.7985 20.2064 95.4092 19.7856C95.0198 19.3595 94.4838 19.1464 93.8011 19.1464C93.3425 19.1464 92.9371 19.2449 92.5851 19.442C92.2384 19.6391 91.9664 19.9268 91.7691 20.305C91.5771 20.6778 91.4784 21.1279 91.4731 21.6553Z" fill="#080808"/>
<path d="M107.679 28.9901C106.415 28.9901 105.327 28.7345 104.415 28.2231C103.509 27.7064 102.81 26.9767 102.319 26.0338C101.829 25.0857 101.583 23.9644 101.583 22.67C101.583 21.4076 101.829 20.2996 102.319 19.3461C102.81 18.3927 103.501 17.6496 104.391 17.1169C105.287 16.5843 106.338 16.3179 107.543 16.3179C108.354 16.3179 109.109 16.4484 109.807 16.7094C110.512 16.9651 111.125 17.3513 111.648 17.868C112.176 18.3847 112.586 19.0345 112.88 19.8176C113.173 20.5953 113.32 21.5061 113.32 22.5502V23.485H102.943V21.3756H110.112C110.112 20.8856 110.005 20.4514 109.791 20.0732C109.578 19.695 109.282 19.3994 108.903 19.1863C108.53 18.968 108.095 18.8588 107.599 18.8588C107.082 18.8588 106.623 18.9786 106.223 19.2183C105.829 19.4527 105.519 19.7696 105.295 20.1691C105.071 20.5633 104.957 21.0028 104.951 21.4875V23.493C104.951 24.1002 105.063 24.6249 105.287 25.067C105.517 25.5091 105.839 25.8501 106.255 26.0898C106.671 26.3295 107.165 26.4493 107.735 26.4493C108.114 26.4493 108.461 26.396 108.775 26.2895C109.09 26.183 109.359 26.0232 109.583 25.8101C109.807 25.597 109.978 25.336 110.096 25.0271L113.248 25.2348C113.088 25.9912 112.76 26.6517 112.264 27.2164C111.773 27.7757 111.138 28.2124 110.36 28.5267C109.586 28.8357 108.693 28.9901 107.679 28.9901Z" fill="#080808"/>
<path d="M115.544 28.7504V16.4777H118.848V18.6191H118.976C119.2 17.8573 119.576 17.282 120.104 16.8932C120.632 16.499 121.24 16.3019 121.928 16.3019C122.098 16.3019 122.282 16.3126 122.48 16.3339C122.677 16.3552 122.85 16.3845 123 16.4218V19.442C122.84 19.3941 122.618 19.3515 122.336 19.3142C122.053 19.2769 121.794 19.2583 121.56 19.2583C121.058 19.2583 120.61 19.3675 120.216 19.5858C119.826 19.7989 119.517 20.0972 119.288 20.4807C119.064 20.8643 118.952 21.3064 118.952 21.8071V28.7504H115.544Z" fill="#080808"/>
</svg>
